<svg xmlns="http://www.w3.org/2000/svg" xmlns:xlink="http://www.w3.org/1999/xlink" version="1.1" x="0px" y="0px" viewBox="0 0 32 40" style="enable-background:new 0 0 32 32;" xml:space="preserve"><path d="M7.6601562,29c0,0.5522461,0.4477539,1,1,1h15.25c2.8339844,0,5.1396484-2.3012695,5.1396484-5.1298828V9.6098633  c0-0.5522461-0.4477539-1-1-1s-1,0.4477539-1,1v15.2602539C27.0498047,26.5957031,25.6416016,28,23.9101562,28h-15.25  C8.1079102,28,7.6601562,28.4477539,7.6601562,29z"/><path d="M22,20.4501953c0.5522461,0,1-0.4477539,1-1s-0.4477539-1-1-1h-3.7900391c-0.5522461,0-1,0.4477539-1,1s0.4477539,1,1,1H22z  "/><path d="M28.2929688,2.2929688L26.15802,4.4279175c-0.692627-0.3375244-1.4550781-0.5177612-2.2478638-0.5177612h-1.5639648V3  c0-0.5522461-0.4477539-1-1-1s-1,0.4477539-1,1v0.9101562h-8.6923828V3c0-0.5522461-0.4477539-1-1-1s-1,0.4477539-1,1v0.9101562  H8.0898438c-2.8339844,0-5.1396484,2.3012695-5.1396484,5.1298828v15.8300781c0,0.7840576,0.180481,1.5463257,0.5199585,2.2456665  l-1.1771851,1.1771851c-0.390625,0.390625-0.390625,1.0234375,0,1.4140625C2.4882812,29.9023438,2.7441406,30,3,30  s0.5117188-0.0976562,0.7070312-0.2929688l26-26c0.390625-0.390625,0.390625-1.0234375,0-1.4140625  S28.6835938,1.9023438,28.2929688,2.2929688z M4.9501953,24.8701172V9.0400391c0-1.7255859,1.4082031-3.1298828,3.1396484-3.1298828  h1.5639648v0.9033203c0,0.5522461,0.4477539,1,1,1s1-0.4477539,1-1V5.9101562h8.6923828v0.9033203c0,0.5522461,0.4477539,1,1,1  s1-0.4477539,1-1V5.9101562h1.5639648c0.2340698,0,0.4610596,0.0335083,0.6834717,0.0821533l-7.4578857,7.4578857H10  c-0.5522461,0-1,0.4477539-1,1s0.4477539,1,1,1h5.1357422l-3,3H10c-0.5522461,0-1,0.4477539-1,1s0.4477539,1,1,1h0.1357422  l-5.1015625,5.1015625C4.984436,25.3285522,4.9501953,25.1017456,4.9501953,24.8701172z"/><text x="0" y="47" fill="#000000" font-size="5px" font-weight="bold" font-family="'Helvetica Neue', Helvetica, Arial-Unicode, Arial, Sans-serif">Created by Riyan Resdian</text><text x="0" y="52" fill="#000000" font-size="5px" font-weight="bold" font-family="'Helvetica Neue', Helvetica, Arial-Unicode, Arial, Sans-serif">from the Noun Project</text></svg>